<?xml version="1.0" encoding="UTF-8" standalone="no"?>
<!-- Created with Inkscape (http://www.inkscape.org/) -->
<svg
   xmlns:dc="http://purl.org/dc/elements/1.1/"
   xmlns:cc="http://creativecommons.org/ns#"
   xmlns:rdf="http://www.w3.org/1999/02/22-rdf-syntax-ns#"
   xmlns:svg="http://www.w3.org/2000/svg"
   xmlns="http://www.w3.org/2000/svg"
   xmlns:sodipodi="http://sodipodi.sourceforge.net/DTD/sodipodi-0.dtd"
   xmlns:inkscape="http://www.inkscape.org/namespaces/inkscape"
   width="32"
   height="32"
   id="svg2"
   sodipodi:version="0.32"
   inkscape:version="0.46"
   version="1.0"
   sodipodi:docname="downloadIcon.svg"
   inkscape:output_extension="org.inkscape.output.svg.inkscape"
   style="display:inline"
   inkscape:export-filename="/media/Storage/downloadIcon00.png"
   inkscape:export-xdpi="90"
   inkscape:export-ydpi="90">
  <defs
     id="defs4">
    <inkscape:perspective
       sodipodi:type="inkscape:persp3d"
       inkscape:vp_x="0 : 526.18109 : 1"
       inkscape:vp_y="0 : 1000 : 0"
       inkscape:vp_z="744.09448 : 526.18109 : 1"
       inkscape:persp3d-origin="372.04724 : 350.78739 : 1"
       id="perspective10" />
  </defs>
  <sodipodi:namedview
     id="base"
     pagecolor="#ffffff"
     bordercolor="#666666"
     borderopacity="1.0"
     gridtolerance="10000"
     guidetolerance="10"
     objecttolerance="10"
     inkscape:pageopacity="0.0"
     inkscape:pageshadow="2"
     inkscape:zoom="11.2"
     inkscape:cx="8.652223"
     inkscape:cy="9.8998595"
     inkscape:document-units="px"
     inkscape:current-layer="layer6"
     showgrid="false"
     inkscape:window-width="1680"
     inkscape:window-height="961"
     inkscape:window-x="1600"
     inkscape:window-y="64" />
  <metadata
     id="metadata7">
    <rdf:RDF>
      <cc:Work
         rdf:about="">
        <dc:format>image/svg+xml</dc:format>
        <dc:type
           rdf:resource="http://purl.org/dc/dcmitype/StillImage" />
      </cc:Work>
    </rdf:RDF>
  </metadata>
  <g
     inkscape:groupmode="layer"
     id="layer2"
     inkscape:label="Anim 00"
     style="display:inline">
    <g
       id="g3187"
       transform="translate(-3.571e-4,2.28e-4)">
      <path
         transform="translate(2.4025753,-4.142859)"
         d="M 16.517857,8.3392859 A 2.9464285,2.9464285 0 1 1 10.625,8.3392859 A 2.9464285,2.9464285 0 1 1 16.517857,8.3392859 z"
         sodipodi:ry="2.9464285"
         sodipodi:rx="2.9464285"
         sodipodi:cy="8.3392859"
         sodipodi:cx="13.571428"
         id="path3189"
         style="opacity:1;fill:#868686;fill-opacity:1;stroke:#000000;stroke-width:1;stroke-linecap:butt;stroke-linejoin:miter;stroke-miterlimit:4;stroke-dasharray:none;stroke-dashoffset:0;stroke-opacity:1"
         sodipodi:type="arc" />
      <path
         transform="translate(2.4025753,4.3571399)"
         d="M 16.517857,8.3392859 A 2.9464285,2.9464285 0 1 1 10.625,8.3392859 A 2.9464285,2.9464285 0 1 1 16.517857,8.3392859 z"
         sodipodi:ry="2.9464285"
         sodipodi:rx="2.9464285"
         sodipodi:cy="8.3392859"
         sodipodi:cx="13.571428"
         id="path3191"
         style="opacity:1;fill:#868686;fill-opacity:1;stroke:#000000;stroke-width:1;stroke-linecap:butt;stroke-linejoin:miter;stroke-miterlimit:4;stroke-dasharray:none;stroke-dashoffset:0;stroke-opacity:1"
         sodipodi:type="arc" />
      <path
         transform="translate(2.4025753,12.85714)"
         d="M 16.517857,8.3392859 A 2.9464285,2.9464285 0 1 1 10.625,8.3392859 A 2.9464285,2.9464285 0 1 1 16.517857,8.3392859 z"
         sodipodi:ry="2.9464285"
         sodipodi:rx="2.9464285"
         sodipodi:cy="8.3392859"
         sodipodi:cx="13.571428"
         id="path3193"
         style="opacity:1;fill:#868686;fill-opacity:1;stroke:#000000;stroke-width:1;stroke-linecap:butt;stroke-linejoin:miter;stroke-miterlimit:4;stroke-dasharray:none;stroke-dashoffset:0;stroke-opacity:1"
         sodipodi:type="arc" />
      <path
         sodipodi:nodetypes="ccccccc"
         id="path3195"
         d="M 1.8303571,22.223215 L 16.064044,30.947772 L 30.11765,22.227255 L 23.440898,22.227254 L 15.977581,28.099097 L 8.5043047,22.293521 L 1.8303571,22.223215 z"
         style="fill:#868686;fill-opacity:1;fill-rule:evenodd;stroke:#000000;stroke-width:1px;stroke-linecap:butt;stroke-linejoin:miter;stroke-opacity:1" />
    </g>
  </g>
  <g
     inkscape:groupmode="layer"
     id="layer3"
     inkscape:label="Anim 01"
     style="display:none">
    <g
       style="display:inline"
       id="g3204"
       transform="translate(-3.571e-4,2.28e-4)">
      <path
         transform="translate(2.4025753,-4.142859)"
         d="M 16.517857,8.3392859 A 2.9464285,2.9464285 0 1 1 10.625,8.3392859 A 2.9464285,2.9464285 0 1 1 16.517857,8.3392859 z"
         sodipodi:ry="2.9464285"
         sodipodi:rx="2.9464285"
         sodipodi:cy="8.3392859"
         sodipodi:cx="13.571428"
         id="path3206"
         style="opacity:1;fill:#50f814;fill-opacity:1;stroke:#000000;stroke-width:1;stroke-linecap:butt;stroke-linejoin:miter;stroke-miterlimit:4;stroke-dasharray:none;stroke-dashoffset:0;stroke-opacity:1"
         sodipodi:type="arc" />
      <path
         transform="translate(2.4025753,4.3571399)"
         d="M 16.517857,8.3392859 A 2.9464285,2.9464285 0 1 1 10.625,8.3392859 A 2.9464285,2.9464285 0 1 1 16.517857,8.3392859 z"
         sodipodi:ry="2.9464285"
         sodipodi:rx="2.9464285"
         sodipodi:cy="8.3392859"
         sodipodi:cx="13.571428"
         id="path3208"
         style="opacity:1;fill:#868686;fill-opacity:1;stroke:#000000;stroke-width:1;stroke-linecap:butt;stroke-linejoin:miter;stroke-miterlimit:4;stroke-dasharray:none;stroke-dashoffset:0;stroke-opacity:1"
         sodipodi:type="arc" />
      <path
         transform="translate(2.4025753,12.85714)"
         d="M 16.517857,8.3392859 A 2.9464285,2.9464285 0 1 1 10.625,8.3392859 A 2.9464285,2.9464285 0 1 1 16.517857,8.3392859 z"
         sodipodi:ry="2.9464285"
         sodipodi:rx="2.9464285"
         sodipodi:cy="8.3392859"
         sodipodi:cx="13.571428"
         id="path3210"
         style="opacity:1;fill:#868686;fill-opacity:1;stroke:#000000;stroke-width:1;stroke-linecap:butt;stroke-linejoin:miter;stroke-miterlimit:4;stroke-dasharray:none;stroke-dashoffset:0;stroke-opacity:1"
         sodipodi:type="arc" />
      <path
         sodipodi:nodetypes="ccccccc"
         id="path3212"
         d="M 1.8303571,22.223215 L 16.064044,30.947772 L 30.11765,22.227255 L 23.440898,22.227254 L 15.977581,28.099097 L 8.5043047,22.293521 L 1.8303571,22.223215 z"
         style="fill:#868686;fill-opacity:1;fill-rule:evenodd;stroke:#000000;stroke-width:1px;stroke-linecap:butt;stroke-linejoin:miter;stroke-opacity:1" />
    </g>
  </g>
  <g
     inkscape:groupmode="layer"
     id="layer4"
     inkscape:label="Anim 02"
     style="display:none">
    <g
       style="display:inline"
       id="g3254"
       transform="translate(-3.571e-4,2.28e-4)">
      <path
         transform="translate(2.4025753,-4.142859)"
         d="M 16.517857,8.3392859 A 2.9464285,2.9464285 0 1 1 10.625,8.3392859 A 2.9464285,2.9464285 0 1 1 16.517857,8.3392859 z"
         sodipodi:ry="2.9464285"
         sodipodi:rx="2.9464285"
         sodipodi:cy="8.3392859"
         sodipodi:cx="13.571428"
         id="path3256"
         style="opacity:1;fill:#868686;fill-opacity:1;stroke:#000000;stroke-width:1;stroke-linecap:butt;stroke-linejoin:miter;stroke-miterlimit:4;stroke-dasharray:none;stroke-dashoffset:0;stroke-opacity:1"
         sodipodi:type="arc" />
      <path
         transform="translate(2.4025753,4.3571399)"
         d="M 16.517857,8.3392859 A 2.9464285,2.9464285 0 1 1 10.625,8.3392859 A 2.9464285,2.9464285 0 1 1 16.517857,8.3392859 z"
         sodipodi:ry="2.9464285"
         sodipodi:rx="2.9464285"
         sodipodi:cy="8.3392859"
         sodipodi:cx="13.571428"
         id="path3258"
         style="opacity:1;fill:#50f814;fill-opacity:1;stroke:#000000;stroke-width:1;stroke-linecap:butt;stroke-linejoin:miter;stroke-miterlimit:4;stroke-dasharray:none;stroke-dashoffset:0;stroke-opacity:1"
         sodipodi:type="arc" />
      <path
         transform="translate(2.4025753,12.85714)"
         d="M 16.517857,8.3392859 A 2.9464285,2.9464285 0 1 1 10.625,8.3392859 A 2.9464285,2.9464285 0 1 1 16.517857,8.3392859 z"
         sodipodi:ry="2.9464285"
         sodipodi:rx="2.9464285"
         sodipodi:cy="8.3392859"
         sodipodi:cx="13.571428"
         id="path3260"
         style="opacity:1;fill:#868686;fill-opacity:1;stroke:#000000;stroke-width:1;stroke-linecap:butt;stroke-linejoin:miter;stroke-miterlimit:4;stroke-dasharray:none;stroke-dashoffset:0;stroke-opacity:1"
         sodipodi:type="arc" />
      <path
         sodipodi:nodetypes="ccccccc"
         id="path3262"
         d="M 1.8303571,22.223215 L 16.064044,30.947772 L 30.11765,22.227255 L 23.440898,22.227254 L 15.977581,28.099097 L 8.5043047,22.293521 L 1.8303571,22.223215 z"
         style="fill:#868686;fill-opacity:1;fill-rule:evenodd;stroke:#000000;stroke-width:1px;stroke-linecap:butt;stroke-linejoin:miter;stroke-opacity:1" />
    </g>
  </g>
  <g
     inkscape:groupmode="layer"
     id="layer5"
     inkscape:label="Anim 03"
     style="display:none">
    <g
       style="display:inline"
       id="g3244"
       transform="translate(-3.571e-4,2.28e-4)">
      <path
         transform="translate(2.4025753,-4.142859)"
         d="M 16.517857,8.3392859 A 2.9464285,2.9464285 0 1 1 10.625,8.3392859 A 2.9464285,2.9464285 0 1 1 16.517857,8.3392859 z"
         sodipodi:ry="2.9464285"
         sodipodi:rx="2.9464285"
         sodipodi:cy="8.3392859"
         sodipodi:cx="13.571428"
         id="path3246"
         style="opacity:1;fill:#868686;fill-opacity:1;stroke:#000000;stroke-width:1;stroke-linecap:butt;stroke-linejoin:miter;stroke-miterlimit:4;stroke-dasharray:none;stroke-dashoffset:0;stroke-opacity:1"
         sodipodi:type="arc" />
      <path
         transform="translate(2.4025753,4.3571399)"
         d="M 16.517857,8.3392859 A 2.9464285,2.9464285 0 1 1 10.625,8.3392859 A 2.9464285,2.9464285 0 1 1 16.517857,8.3392859 z"
         sodipodi:ry="2.9464285"
         sodipodi:rx="2.9464285"
         sodipodi:cy="8.3392859"
         sodipodi:cx="13.571428"
         id="path3248"
         style="opacity:1;fill:#868686;fill-opacity:1;stroke:#000000;stroke-width:1;stroke-linecap:butt;stroke-linejoin:miter;stroke-miterlimit:4;stroke-dasharray:none;stroke-dashoffset:0;stroke-opacity:1"
         sodipodi:type="arc" />
      <path
         transform="translate(2.4025753,12.85714)"
         d="M 16.517857,8.3392859 A 2.9464285,2.9464285 0 1 1 10.625,8.3392859 A 2.9464285,2.9464285 0 1 1 16.517857,8.3392859 z"
         sodipodi:ry="2.9464285"
         sodipodi:rx="2.9464285"
         sodipodi:cy="8.3392859"
         sodipodi:cx="13.571428"
         id="path3250"
         style="opacity:1;fill:#50f814;fill-opacity:1;stroke:#000000;stroke-width:1;stroke-linecap:butt;stroke-linejoin:miter;stroke-miterlimit:4;stroke-dasharray:none;stroke-dashoffset:0;stroke-opacity:1"
         sodipodi:type="arc" />
      <path
         sodipodi:nodetypes="ccccccc"
         id="path3252"
         d="M 1.8303571,22.223215 L 16.064044,30.947772 L 30.11765,22.227255 L 23.440898,22.227254 L 15.977581,28.099097 L 8.5043047,22.293521 L 1.8303571,22.223215 z"
         style="fill:#868686;fill-opacity:1;fill-rule:evenodd;stroke:#000000;stroke-width:1px;stroke-linecap:butt;stroke-linejoin:miter;stroke-opacity:1" />
    </g>
  </g>
  <g
     inkscape:groupmode="layer"
     id="layer6"
     inkscape:label="Anim 04"
     style="display:none">
    <g
       style="display:inline"
       id="g3234"
       transform="translate(-3.571e-4,2.28e-4)">
      <path
         transform="translate(2.4025753,-4.142859)"
         d="M 16.517857,8.3392859 A 2.9464285,2.9464285 0 1 1 10.625,8.3392859 A 2.9464285,2.9464285 0 1 1 16.517857,8.3392859 z"
         sodipodi:ry="2.9464285"
         sodipodi:rx="2.9464285"
         sodipodi:cy="8.3392859"
         sodipodi:cx="13.571428"
         id="path3236"
         style="opacity:1;fill:#868686;fill-opacity:1;stroke:#000000;stroke-width:1;stroke-linecap:butt;stroke-linejoin:miter;stroke-miterlimit:4;stroke-dasharray:none;stroke-dashoffset:0;stroke-opacity:1"
         sodipodi:type="arc" />
      <path
         transform="translate(2.4025753,4.3571399)"
         d="M 16.517857,8.3392859 A 2.9464285,2.9464285 0 1 1 10.625,8.3392859 A 2.9464285,2.9464285 0 1 1 16.517857,8.3392859 z"
         sodipodi:ry="2.9464285"
         sodipodi:rx="2.9464285"
         sodipodi:cy="8.3392859"
         sodipodi:cx="13.571428"
         id="path3238"
         style="opacity:1;fill:#868686;fill-opacity:1;stroke:#000000;stroke-width:1;stroke-linecap:butt;stroke-linejoin:miter;stroke-miterlimit:4;stroke-dasharray:none;stroke-dashoffset:0;stroke-opacity:1"
         sodipodi:type="arc" />
      <path
         transform="translate(2.4025753,12.85714)"
         d="M 16.517857,8.3392859 A 2.9464285,2.9464285 0 1 1 10.625,8.3392859 A 2.9464285,2.9464285 0 1 1 16.517857,8.3392859 z"
         sodipodi:ry="2.9464285"
         sodipodi:rx="2.9464285"
         sodipodi:cy="8.3392859"
         sodipodi:cx="13.571428"
         id="path3240"
         style="opacity:1;fill:#868686;fill-opacity:1;stroke:#000000;stroke-width:1;stroke-linecap:butt;stroke-linejoin:miter;stroke-miterlimit:4;stroke-dasharray:none;stroke-dashoffset:0;stroke-opacity:1"
         sodipodi:type="arc" />
      <path
         sodipodi:nodetypes="ccccccc"
         id="path3242"
         d="M 1.8303571,22.223215 L 16.064044,30.947772 L 30.11765,22.227255 L 23.440898,22.227254 L 15.977581,28.099097 L 8.5043047,22.293521 L 1.8303571,22.223215 z"
         style="fill:#50f814;fill-opacity:1;fill-rule:evenodd;stroke:#000000;stroke-width:1px;stroke-linecap:butt;stroke-linejoin:miter;stroke-opacity:1" />
    </g>
  </g>
</svg>
